<?xml version="1.0" encoding="UTF-8"?>
<svg version="1.1" xmlns="http://www.w3.org/2000/svg" xmlns:xlink="http://www.w3.org/1999/xlink" viewBox="0 0 256 256" width="256" height="256">
  <defs>
    <path id="b1nGq5BrLC" d="M27.2 243.52C27.2 236.16 27.2 199.83 27.2 134.22C47.64 134.22 211.12 134.22 231.56 134.22C231.56 199.83 231.56 236.16 231.56 243.52C231.56 250.4 225.96 256 218.92 256C183.07 256 57.77 256 39.84 256C32.8 256 27.2 250.4 27.2 243.52Z"></path>
    <path id="a3jkaoNn4k" d="M24.32 103.65C24.32 106.22 24.32 127.02 24.32 129.58C24.32 132.78 26.72 135.18 29.92 135.18C50.41 135.18 215.08 135.18 235.72 135.18C238.76 135.18 241.32 132.78 241.32 129.58C241.32 127.02 241.32 106.22 241.32 103.65C241.32 100.45 238.76 98.05 235.72 98.05C194.59 98.05 50.41 98.05 29.92 98.05C26.72 98.05 24.32 100.45 24.32 103.65Z"></path>
    <path id="atpVQ8mnd" d="M174.59 135.18L211.87 98.05L171.07 98.05L133.78 135.18L174.59 135.18Z"></path>
    <path id="bMtYoNHu0" d="M76.81 135.18L114.1 98.05L73.13 98.05L35.84 135.18L76.81 135.18Z"></path>
    <path id="b5oP0Glp4" d="M19.04 69.41C19.84 71.97 25.92 91.97 26.72 94.37C27.68 97.41 30.72 99.01 33.76 98.05C54.09 91.81 216.68 42.04 237 35.8C240.04 35 241.64 31.8 240.84 28.92C240.04 26.36 233.96 6.36 233.16 3.96C232.2 0.92 229.16 -0.68 226.12 0.28C185.47 12.6 43.21 56.29 22.88 62.53C19.84 63.33 18.24 66.53 19.04 69.41Z"></path>
    <path id="lwBgev6DR" d="M176.51 54.37L129.94 29.4L169.15 17.56L215.72 42.52L176.51 54.37Z"></path>
    <path id="cUsjEMRUu" d="M81.61 83.49L35.04 58.69L74.25 46.69L120.82 71.49L81.61 83.49Z"></path>
    <path id="c1bcHZGXe" d="M14.72 66.69C14.72 72.93 14.72 123.02 14.72 129.26C14.72 132.62 17.44 135.18 20.64 135.18C26.56 135.18 74.09 135.18 80.01 135.18C84.33 135.18 87.21 130.86 85.61 127.02C82.89 120.78 61.45 70.53 58.73 64.29C57.77 62.05 55.69 60.77 53.29 60.77C46.73 60.77 24 60.77 20.64 60.77C17.44 60.77 14.72 63.33 14.72 66.69Z"></path>
    <path id="f2PtH0V1vC" d="M32.64 60.61C31.52 60.61 21.92 60.61 20.64 60.61C17.44 60.61 14.72 63.33 14.72 66.53C14.72 72.77 14.72 123.02 14.72 129.26C14.72 132.46 17.44 135.18 20.64 135.18C21.92 135.18 31.52 135.18 32.64 135.18C29.44 135.18 26.72 132.46 26.72 129.26C26.72 116.62 26.72 72.77 26.72 66.53C26.72 63.33 29.44 60.61 32.64 60.61Z"></path>
    <path id="a1SvrrkqVm" d="M231.56 135.18C231.56 143.82 231.56 148.46 231.56 149.42C231.56 149.42 231.56 149.42 231.56 149.42C108.98 149.42 40.8 149.42 27.2 149.42C27.2 149.42 27.2 149.42 27.2 149.42C27.2 140.94 27.2 136.14 27.2 135.18C27.2 135.18 27.2 135.18 27.2 135.18C149.78 135.18 217.96 135.18 231.56 135.18C231.56 135.18 231.56 135.18 231.56 135.18Z"></path>
    <path id="agXcvKqh8" d="M104.22 162.46L104.22 234.46L163.22 198.54L104.22 162.46Z"></path>
  </defs>
  <g>
    <g><use xlink:href="#b1nGq5BrLC" fill="#4747d1" transform="matrix(1, 0, 0, 0.97, 0, 0)"></use></g>
    <g><use xlink:href="#a3jkaoNn4k" fill="#4747d1" transform="matrix(1, 0, 0, 0.97, 0, 0)"></use></g>
    <g><use xlink:href="#atpVQ8mnd" fill="#f1f1f1" transform="matrix(1, 0, 0, 0.97, 0, 0)"></use></g>
    <g><use xlink:href="#bMtYoNHu0" fill="#f1f1f1" transform="matrix(1, 0, 0, 0.97, 0, 0)"></use></g>
    <g><use xlink:href="#b5oP0Glp4" fill="#4747d1" transform="matrix(1, 0, 0, 0.97, 0, 0)"></use></g>
    <g><use xlink:href="#lwBgev6DR" fill="#f1f1f1" transform="matrix(1, 0, 0, 0.97, 0, 0)"></use></g>
    <g><use xlink:href="#cUsjEMRUu" fill="#f1f1f1" transform="matrix(1, 0, 0, 0.97, 0, 0)"></use></g>
    <g><use xlink:href="#c1bcHZGXe" fill="#a9a9a9" transform="matrix(1, 0, 0, 0.97, 0, 0)"></use></g>
    <g><use xlink:href="#f2PtH0V1vC" opacity="0.2" fill="#000000" transform="matrix(1, 0, 0, 0.97, 0, 0)"></use></g>
    <g><use xlink:href="#a1SvrrkqVm" opacity="0.2" fill="#000000" transform="matrix(1, 0, 0, 0.97, 0, 0)"></use></g>
    <g><use xlink:href="#agXcvKqh8" fill="#f1f1f1" transform="matrix(1, 0, 0, 0.97, 0, 0)"></use></g>
  </g>
</svg>
