<?xml version="1.0" encoding="UTF-8"?>
<svg height="16px" viewBox="0 0 16 16" width="16px" xmlns="http://www.w3.org/2000/svg" xmlns:xlink="http://www.w3.org/1999/xlink">
    <filter id="a" height="100%" width="100%" x="0%" y="0%">
        <feColorMatrix in="SourceGraphic" type="matrix" values="0 0 0 0 1 0 0 0 0 1 0 0 0 0 1 0 0 0 1 0"/>
    </filter>
    <mask id="b">
        <g filter="url(#a)">
            <path d="m 0 0 h 16 v 16 h -16 z" fill-opacity="0.3"/>
        </g>
    </mask>
    <clipPath id="c">
        <path d="m 0 0 h 1024 v 800 h -1024 z"/>
    </clipPath>
    <mask id="d">
        <g filter="url(#a)">
            <path d="m 0 0 h 16 v 16 h -16 z" fill-opacity="0.05"/>
        </g>
    </mask>
    <clipPath id="e">
        <path d="m 0 0 h 1024 v 800 h -1024 z"/>
    </clipPath>
    <mask id="f">
        <g filter="url(#a)">
            <path d="m 0 0 h 16 v 16 h -16 z" fill-opacity="0.05"/>
        </g>
    </mask>
    <clipPath id="g">
        <path d="m 0 0 h 1024 v 800 h -1024 z"/>
    </clipPath>
    <mask id="h">
        <g filter="url(#a)">
            <path d="m 0 0 h 16 v 16 h -16 z" fill-opacity="0.05"/>
        </g>
    </mask>
    <clipPath id="i">
        <path d="m 0 0 h 1024 v 800 h -1024 z"/>
    </clipPath>
    <mask id="j">
        <g filter="url(#a)">
            <path d="m 0 0 h 16 v 16 h -16 z" fill-opacity="0.05"/>
        </g>
    </mask>
    <clipPath id="k">
        <path d="m 0 0 h 1024 v 800 h -1024 z"/>
    </clipPath>
    <mask id="l">
        <g filter="url(#a)">
            <path d="m 0 0 h 16 v 16 h -16 z" fill-opacity="0.05"/>
        </g>
    </mask>
    <clipPath id="m">
        <path d="m 0 0 h 1024 v 800 h -1024 z"/>
    </clipPath>
    <mask id="n">
        <g filter="url(#a)">
            <path d="m 0 0 h 16 v 16 h -16 z" fill-opacity="0.05"/>
        </g>
    </mask>
    <clipPath id="o">
        <path d="m 0 0 h 1024 v 800 h -1024 z"/>
    </clipPath>
    <mask id="p">
        <g filter="url(#a)">
            <path d="m 0 0 h 16 v 16 h -16 z" fill-opacity="0.3"/>
        </g>
    </mask>
    <clipPath id="q">
        <path d="m 0 0 h 1024 v 800 h -1024 z"/>
    </clipPath>
    <mask id="r">
        <g filter="url(#a)">
            <path d="m 0 0 h 16 v 16 h -16 z" fill-opacity="0.5"/>
        </g>
    </mask>
    <clipPath id="s">
        <path d="m 0 0 h 1024 v 800 h -1024 z"/>
    </clipPath>
    <g fill="#2e3436">
        <path d="m 1 2.007812 c -0.550781 0 -1 0.449219 -1 1 v 9 c 0 0.550782 0.449219 1 1 1 h 4 v -2 h -3 v -7 h 10 v 3 h 2 v -4 c 0 -0.550781 -0.449219 -1 -1 -1 z m 0 0"/>
        <path d="m 9 10 c -0.550781 0 -1 0.449219 -1 1 v 4.007812 c 0 0.550782 0.449219 1 1 1 h 6 c 0.550781 0 1 -0.449218 1 -1 v -4.007812 c 0 -0.550781 -0.449219 -1 -1 -1 z m 1 2 h 4 v 2.007812 h -4 z m 0 0" fill-opacity="0.35"/>
        <path d="m 7.863281 9.871094 c -0.167969 0.164062 -0.492187 0.1875 -0.753906 -0.019532 l -3.113281 -3.085937 v -0.753906 h 0.753906 l 3.109375 3.085937 c 0.191406 0.191406 0.179687 0.601563 0.003906 0.773438 z m 0 0"/>
        <path d="m 6.996094 6.011719 h -4 v -1 h 4 z m 0 0"/>
        <path d="m 3.996094 9.011719 h -1 v -4 h 1 z m 0 0"/>
    </g>
    <g clip-path="url(#c)" mask="url(#b)" transform="matrix(1 0 0 1 -600 -764)">
        <path d="m 562.460938 212.058594 h 10.449218 c -1.183594 0.492187 -1.296875 2.460937 0 3 h -10.449218 z m 0 0" fill="#2e3436"/>
    </g>
    <g clip-path="url(#e)" mask="url(#d)" transform="matrix(1 0 0 1 -600 -764)">
        <path d="m 16 632 h 1 v 1 h -1 z m 0 0" fill="#2e3436" fill-rule="evenodd"/>
    </g>
    <g clip-path="url(#g)" mask="url(#f)" transform="matrix(1 0 0 1 -600 -764)">
        <path d="m 17 631 h 1 v 1 h -1 z m 0 0" fill="#2e3436" fill-rule="evenodd"/>
    </g>
    <g clip-path="url(#i)" mask="url(#h)" transform="matrix(1 0 0 1 -600 -764)">
        <path d="m 18 634 h 1 v 1 h -1 z m 0 0" fill="#2e3436" fill-rule="evenodd"/>
    </g>
    <g clip-path="url(#k)" mask="url(#j)" transform="matrix(1 0 0 1 -600 -764)">
        <path d="m 16 634 h 1 v 1 h -1 z m 0 0" fill="#2e3436" fill-rule="evenodd"/>
    </g>
    <g clip-path="url(#m)" mask="url(#l)" transform="matrix(1 0 0 1 -600 -764)">
        <path d="m 17 635 h 1 v 1 h -1 z m 0 0" fill="#2e3436" fill-rule="evenodd"/>
    </g>
    <g clip-path="url(#o)" mask="url(#n)" transform="matrix(1 0 0 1 -600 -764)">
        <path d="m 19 635 h 1 v 1 h -1 z m 0 0" fill="#2e3436" fill-rule="evenodd"/>
    </g>
    <g clip-path="url(#q)" mask="url(#p)" transform="matrix(1 0 0 1 -600 -764)">
        <path d="m 136 660 v 7 h 7 v -7 z m 0 0" fill="#2e3436"/>
    </g>
    <g clip-path="url(#s)" mask="url(#r)" transform="matrix(1 0 0 1 -600 -764)">
        <path d="m 219 642 h 3 v 12 h -3 z m 0 0" fill="#2e3436"/>
    </g>
</svg>
